<svg xmlns="http://www.w3.org/2000/svg" viewBox="0 0 1920 1080">
  <defs>
    <linearGradient id="skyGradient" x1="0%" y1="0%" x2="0%" y2="100%">
      <stop offset="0%" style="stop-color:#87CEEB;stop-opacity:1" />
      <stop offset="100%" style="stop-color:#E0F6FF;stop-opacity:1" />
    </linearGradient>
    <linearGradient id="mountainGradient" x1="0%" y1="0%" x2="0%" y2="100%">
      <stop offset="0%" style="stop-color:#2d5a2d;stop-opacity:1" />
      <stop offset="100%" style="stop-color:#1a4d1a;stop-opacity:1" />
    </linearGradient>
  </defs>
  
  <!-- Sky -->
  <rect width="1920" height="700" fill="url(#skyGradient)"/>
  
  <!-- Mountains (representing Mount Rainier) -->
  <path d="M0 700 L300 400 L600 600 L900 350 L1200 500 L1500 450 L1800 600 L1920 550 L1920 700 Z" fill="url(#mountainGradient)"/>
  
  <!-- City skyline silhouette -->
  <rect x="100" y="600" width="80" height="100" fill="#333333"/>
  <rect x="200" y="580" width="100" height="120" fill="#444444"/>
  <rect x="320" y="620" width="60" height="80" fill="#333333"/>
  <rect x="400" y="560" width="120" height="140" fill="#555555"/>
  <rect x="540" y="590" width="80" height="110" fill="#444444"/>
  <rect x="640" y="570" width="90" height="130" fill="#333333"/>
  <rect x="750" y="600" width="100" height="100" fill="#444444"/>
  <rect x="870" y="550" width="110" height="150" fill="#555555"/>
  <rect x="1000" y="610" width="80" height="90" fill="#333333"/>
  <rect x="1100" y="580" width="120" height="120" fill="#444444"/>
  <rect x="1240" y="590" width="70" height="110" fill="#333333"/>
  <rect x="1330" y="560" width="100" height="140" fill="#555555"/>
  <rect x="1450" y="600" width="90" height="100" fill="#444444"/>
  <rect x="1560" y="570" width="110" height="130" fill="#333333"/>
  <rect x="1690" y="590" width="80" height="110" fill="#444444"/>
  <rect x="1790" y="580" width="100" height="120" fill="#555555"/>
  
  <!-- Ground -->
  <rect x="0" y="700" width="1920" height="380" fill="#666666"/>
  
  <!-- Trees -->
  <g fill="#0d4d0d">
    <path d="M50 700 L70 650 L90 700 Z"/>
    <path d="M150 700 L170 640 L190 700 Z"/>
    <path d="M850 700 L870 660 L890 700 Z"/>
    <path d="M1300 700 L1320 650 L1340 700 Z"/>
    <path d="M1600 700 L1620 640 L1640 700 Z"/>
  </g>
  
  <!-- Recycling symbol watermark -->
  <g opacity="0.1" transform="translate(800,400) scale(10,10)">
    <path d="M10 0l-5 8.7h10z" fill="#ffffff"/>
    <path d="M0 15l8.7-5v10z" fill="#ffffff"/>
    <path d="M20 15l-8.7 5v-10z" fill="#ffffff"/>
  </g>
</svg>