<svg xmlns="http://www.w3.org/2000/svg" viewBox="0 0 100 100" fill="#2d7a2d">
  <path d="M50 10c-5.5 0-10 4.5-10 10v15l-15-5c-5.3-1.8-11.1 1.1-12.9 6.4-1.8 5.3 1.1 11.1 6.4 12.9l20 6.7-10 17.3c-2.8 4.8-1.1 10.9 3.7 13.7 4.8 2.8 10.9 1.1 13.7-3.7L50 75.8l4.3 7.5c2.8 4.8 8.9 6.5 13.7 3.7 4.8-2.8 6.5-8.9 3.7-13.7L61.7 56l20-6.7c5.3-1.8 8.2-7.6 6.4-12.9-1.8-5.3-7.6-8.2-12.9-6.4l-15 5V20c0-5.5-4.5-10-10-10zm0 30c5.5 0 10 4.5 10 10s-4.5 10-10 10-10-4.5-10-10 4.5-10 10-10z"/>
  <path d="M35 25l-7.5-7.5c-1.5-1.5-3.9-1.5-5.4 0s-1.5 3.9 0 5.4l10 10c.7.7 1.7 1.1 2.7 1.1s2-.4 2.7-1.1c1.5-1.5 1.5-3.9 0-5.4l-2.5-2.5z"/>
  <path d="M72.5 17.5c-1.5-1.5-3.9-1.5-5.4 0L65 20v10l10-10c1.5-1.5 1.5-3.9 0-5.4l-2.5-2.1z"/>
  <path d="M50 85l-10-17.3c-1.5-2.6-4.8-3.5-7.4-2s-3.5 4.8-2 7.4l10 17.3c.9 1.6 2.6 2.6 4.4 2.6h20c3 0 5.5-2.5 5.5-5.5s-2.5-5.5-5.5-5.5H50z"/>
</svg>