<svg xmlns="http://www.w3.org/2000/svg" viewBox="0 0 100 100" fill="#2d7a2d">
  <path d="M85 45h-5V30c0-2.8-2.2-5-5-5H60v-5c0-2.8-2.2-5-5-5H20c-2.8 0-5 2.2-5 5v40c0 2.8 2.2 5 5 5h5.1c.5 5.5 5.2 10 10.9 10s10.4-4.5 10.9-10h13.2c.5 5.5 5.2 10 10.9 10s10.4-4.5 10.9-10H85c2.8 0 5-2.2 5-5v-5c0-5.5-2.5-10-5-10zM36 70c-2.8 0-5-2.2-5-5s2.2-5 5-5 5 2.2 5 5-2.2 5-5 5zm35 0c-2.8 0-5-2.2-5-5s2.2-5 5-5 5 2.2 5 5-2.2 5-5 5zm9-15H60V30h15v15c0 2.8 2.2 5 5 5v5z"/>
  <rect x="20" y="25" width="30" height="15" rx="2" fill="#3ca93c"/>
  <rect x="20" y="45" width="25" height="10" rx="2" fill="#3ca93c"/>
</svg>